<?xml version="1.0"?>
<!DOCTYPE svg PUBLIC "-//W3C//DTD SVG 1.0//EN"
	"http://www.w3.org/TR/2001/REC-SVG-20010904/DTD/svg10.dtd">
<svg xmlns:x="http://ns.adobe.com/Extensibility/1.0/"
	xmlns:i="http://ns.adobe.com/AdobeIllustrator/10.0/" xmlns:graph=""
	xmlns="http://www.w3.org/2000/svg" xmlns:xlink="http://www.w3.org/1999/xlink"
	xmlns:a="http://ns.adobe.com/AdobeSVGViewerExtensions/3.0/" width="113"
	height="127" viewBox="-0.409 -0.041 113 127" overflow="visible"
	enable-background="new -0.409 -0.041 113 127" xml:space="preserve">
	<g id="Layer_1_2_">
		<g>
			<linearGradient id="XMLID_1_" gradientUnits="userSpaceOnUse" x1="32.728"
				y1="47.5898" x2="136.649" y2="151.511">
				<stop offset="0" style="stop-color:rgb(255,255,255)"/>
				<stop offset="1" style="stop-color:rgb(223,223,236)"/>
				<a:midPointStop offset="0" style="stop-color:#FFFFFF"/>
				<a:midPointStop offset="0.5" style="stop-color:#FFFFFF"/>
				<a:midPointStop offset="1" style="stop-color:#DFDFEC"/>
			</linearGradient>
			<path
				d="M110.871 125.733 L1.227 125.733 L1.227 16.089 L110.872 16.089 L110.872 125.733 z"
				
				 style="fill:url(#XMLID_1_)"/>
			<path
				d="M110.871 125.733 L1.227 125.733 L1.227 16.089 L110.872 16.089 L110.872 125.733 z"
				
				 style="fill:rgb(255,0,0)"/>
			<linearGradient id="XMLID_2_" gradientUnits="userSpaceOnUse" x1="104.425"
				y1="22.5376" x2="4.2002" y2="122.762">
				<stop offset="0" style="stop-color:rgb(255,255,255)"/>
				<stop offset="0.3171" style="stop-color:rgb(252,252,252)"/>
				<stop offset="0.5119" style="stop-color:rgb(244,244,244)"/>
				<stop offset="0.6737" style="stop-color:rgb(230,230,230)"/>
				<stop offset="0.8174" style="stop-color:rgb(209,209,209)"/>
				<stop offset="0.9478" style="stop-color:rgb(183,183,183)"/>
				<stop offset="1" style="stop-color:rgb(170,170,170)"/>
				<a:midPointStop offset="0" style="stop-color:#FFFFFF"/>
				<a:midPointStop offset="0.7966" style="stop-color:#FFFFFF"/>
				<a:midPointStop offset="1" style="stop-color:#AAAAAA"/>
			</linearGradient>
			<path
				d="M105.553 120.415 L6.545 120.415 L6.545 21.408 L105.552 21.408 L105.552 120.415 z"
				
				 style="fill:url(#XMLID_2_)"/>
			<linearGradient id="XMLID_3_" gradientUnits="userSpaceOnUse" x1="-27.7939"
				y1="-28.2285" x2="118.744" y2="145.044">
				<stop offset="0" style="stop-color:rgb(255,255,255)"/>
				<stop offset="0.5169" style="stop-color:rgb(255,0,0)"/>
				<stop offset="1" style="stop-color:rgb(136,0,0)"/>
				<a:midPointStop offset="0" style="stop-color:#FFFFFF"/>
				<a:midPointStop offset="0.5" style="stop-color:#FFFFFF"/>
				<a:midPointStop offset="0.5169" style="stop-color:#FF0000"/>
				<a:midPointStop offset="0.5" style="stop-color:#FF0000"/>
				<a:midPointStop offset="1" style="stop-color:#880000"/>
			</linearGradient>
			<path
				d="M1.227 14.861 C0.55 14.861 0 15.412 0 16.089 L0 125.733 C0 126.411 0.55 126.96 1.227
					126.96 L110.872 126.96 C111.549 126.96 112.099 126.411 112.099 125.733
					L112.099 16.089 C112.099 15.412 111.549 14.861 110.872 14.861 zM109.643 17.316
					C109.643 19.69 109.643 122.131 109.643 124.506 C107.27 124.506 4.829 124.506
					2.455 124.506 C2.455 122.131 2.455 19.689 2.455 17.316 C4.828 17.316
					107.27 17.316 109.643 17.316 z"
				 style="fill:url(#XMLID_3_)"/>
			<g id="Layer_x005F_2_3_">
				<g style="opacity:0.35">
					<path
						d="M61.87 5.749 C52.094 14.454 94.557 91.341 104.723 71.597 C116.158 49.386 2.89 96.407
							27.316 102.77 C55.934 110.224 80.099 -10.482 61.87 5.749 z"
						 style="fill:none"/>
					<path
						d="M59.962 4.553 C52.738 11.656 60.693 26.873 63.904 34.114 C69.771 47.349 77.436 61.097
							87.821 71.342 C90.872 74.352 94.651 77.55 99.192 77.445 C103.598 77.344
							107.274 73.481 108.436 69.463 C110.874 61.037 97.442 63.166 93.206 63.918
							C80.597 66.156 68.254 71.008 56.538 76.042 C45.867 80.628 34.577 85.753
							25.654 93.337 C23.312 95.324 20.578 98.127 20.701 101.43 C20.821 104.625
							25.496 105.586 27.896 105.704 C38.584 106.224 46.221 95.308 50.943 87.207
							C61.413 69.245 67.145 47.512 70.172 27.082 C71.16 20.385 72.453 12.467
							70.624 5.796 C69.039 0.011 63.652 1.378 59.962 4.553 C56.379 7.637 61.058
							9.288 63.778 6.946 C64.435 6.379 63.085 6.724 63.478 6.997 C63.968 7.337
							64.448 9.06 64.632 10.028 C65.508 14.637 64.968 19.568 64.463 24.183
							C62.898 38.525 59.271 52.836 54.483 66.424 C50.701 77.164 45.714 91.615 36.11
							98.663 C33.605 100.501 30.142 101.277 27.422 99.37 C26.903 99.009 26.991
							98.619 27.132 98.302 C27.465 97.541 28.687 96.391 29.826 95.421 C38.635
							87.935 50.538 83.223 61.09 78.857 C72.031 74.325 83.928 69.607 95.816
							68.434 C97.84 68.235 101.935 68.008 102.327 69.717 C102.476 70.366 102.065
							71.651 101.513 72.25 C100.988 72.82 102.097 72.187 101.357 72.201 C100.547
							72.222 99.644 71.745 98.946 71.392 C93.849 68.817 89.982 63.639 86.627
							59.2 C81.952 53.021 77.952 46.318 74.324 39.479 C70.855 32.943 67.751
							26.144 65.516 19.081 C64.667 16.391 63.992 13.633 63.677 10.826 C63.577 9.912
							63.552 9 63.646 8.085 C63.707 7.498 64.309 6.421 63.777 6.948 C67.129
							3.649 62.562 1.997 59.962 4.553 z"
						 style="opacity:0.35"/>
				</g>
				<g>
					<path
						d="M57.978 3.935 C48.2 12.642 90.666 89.53 100.832 69.784 C112.265 47.574 -1.003 94.595
							23.425 100.955 C52.042 108.412 76.206 -12.295 57.978 3.935 z"
						 style="fill:none"/>
					<path
						d="M56.07 2.739 C48.845 9.843 56.801 25.062 60.009 32.302 C65.877 45.536 73.543 59.283
							83.929 69.53 C86.98 72.54 90.758 75.734 95.298 75.632 C99.706 75.53 103.381
							71.67 104.545 67.649 C106.982 59.226 93.548 61.353 89.312 62.104 C76.707
							64.342 64.361 69.197 52.646 74.229 C41.974 78.814 30.685 83.939 21.761
							91.523 C19.42 93.512 16.684 96.316 16.809 99.618 C16.928 102.813 21.603
							103.774 24.003 103.89 C34.69 104.411 42.328 93.494 47.05 85.393 C57.519
							67.435 63.253 45.698 66.277 25.268 C67.269 18.571 68.561 10.654 66.732
							3.982 C65.147 -1.803 59.76 -0.435 56.07 2.743 C52.486 5.827 57.165 7.474
							59.883 5.133 C60.541 4.567 59.19 4.912 59.586 5.185 C60.073 5.524 60.554
							7.249 60.737 8.216 C61.615 12.826 61.075 17.757 60.569 22.37 C59.006 36.715
							55.375 51.023 50.59 64.613 C46.809 75.352 41.821 89.803 32.215 96.852
							C29.712 98.688 26.25 99.463 23.528 97.559 C23.009 97.197 23.095 96.809 23.236
							96.489 C23.571 95.729 24.793 94.58 25.932 93.61 C34.743 86.124 46.644
							81.411 57.196 77.045 C68.139 72.513 80.035 67.794 91.923 66.624 C93.947
							66.423 98.043 66.196 98.435 67.903 C98.584 68.555 98.173 69.84 97.621 70.439
							C97.095 71.009 98.203 70.374 97.463 70.39 C96.654 70.41 95.751 69.935
							95.052 69.58 C89.959 67.008 86.089 61.828 82.732 57.391 C78.057 51.21 74.061
							44.506 70.431 37.669 C66.964 31.131 63.858 24.334 61.624 17.271 C60.773
							14.58 60.099 11.822 59.786 9.015 C59.683 8.101 59.658 7.188 59.753 6.273
							C59.815 5.686 60.416 4.611 59.883 5.135 C63.237 1.838 58.671 0.186 56.07
							2.743 z"
						 style="fill:rgb(255,0,0)"/>
				</g>
			</g>
		</g>
	</g>
</svg>
